<svg viewBox="0 0 22 16" xmlns="http://www.w3.org/2000/svg"><path d="m19.6976431 15.9665985h-18.36533634c-.71212528 0-1.31180973-.5809443-1.31180973-1.3118097v-13.26801851c0-.71212528.58094431-1.31180973 1.31180973-1.31180973h18.36533634c.7121253 0 1.3118098.58094431 1.3118098 1.31180973v13.26801851c0 .7308654-.5809444 1.3118097-1.3118098 1.3118097z" fill="#fff"/><path d="m.03046485 1.2109033c.02381892-.20826385.09983415-.41211284.23365399-.59247871.4310232-.58094431 1.27432946-.71212529 1.87401391-.28110208l8.37684215 6.09054521 8.4330626-6.16550577c.5809444-.4310232 1.4055105-.29984223 1.8365337.29984222.2290873.30876987.2993584.68636009.2248817 1.03710572v13.07421901c0 .7121253-.5809444 1.2930696-1.3118098 1.2930696h-1.3118097v-12.04389711l-7.8895986 5.72847024-7.8521183-5.69983633v12.0152632h-1.31180974c-.73086542 0-1.31180973-.5809443-1.31180973-1.3118097v-13.28675865c0-.05580191.00338655-.10810802.00996782-.15712685z" fill="#f7f7f7"/></svg>